<svg width="18" height="18" viewBox="0 0 18 18" fill="none" xmlns="http://www.w3.org/2000/svg">
<path fill-rule="evenodd" clip-rule="evenodd" d="M6.43091 4.13384C6.44535 3.97543 6.52212 3.82923 6.64432 3.7274C6.76652 3.62556 6.92416 3.57642 7.08258 3.59078L13.3048 4.15675C13.4604 4.17467 13.6029 4.25273 13.7017 4.37426C13.8005 4.49578 13.8479 4.65114 13.8337 4.80713C13.8195 4.96312 13.7449 5.10738 13.6258 5.2091C13.5067 5.31081 13.3525 5.36191 13.1962 5.35148L6.97396 4.78551C6.81555 4.77106 6.66936 4.6943 6.56753 4.5721C6.46569 4.4499 6.41655 4.29226 6.43091 4.13384Z" fill="#2C2C2C"/>
<path fill-rule="evenodd" clip-rule="evenodd" d="M13.8708 11.5737C13.7124 11.5881 13.5547 11.5389 13.4325 11.4371C13.3103 11.3353 13.2335 11.1891 13.2191 11.0306L12.6531 4.80839C12.6427 4.6521 12.6938 4.49793 12.7955 4.37881C12.8972 4.25969 13.0415 4.18507 13.1975 4.17089C13.3535 4.15671 13.5088 4.20409 13.6304 4.30291C13.7519 4.40174 13.8299 4.54417 13.8479 4.69978L14.4138 10.922C14.4282 11.0805 14.379 11.2381 14.2772 11.3603C14.1754 11.4825 14.0292 11.5593 13.8708 11.5737Z" fill="#2C2C2C"/>
<path fill-rule="evenodd" clip-rule="evenodd" d="M13.2505 4.75408C13.363 4.8666 13.4262 5.01922 13.4262 5.17835C13.4262 5.33748 13.363 5.49009 13.2505 5.60261L5.18946 13.6636C5.07694 13.7761 4.92433 13.8394 4.7652 13.8394C4.60607 13.8394 4.45346 13.7761 4.34093 13.6636C4.22841 13.5511 4.1652 13.3985 4.1652 13.2394C4.1652 13.0802 4.22841 12.9276 4.34093 12.8151L12.402 4.75408C12.5145 4.64156 12.6671 4.57834 12.8262 4.57834C12.9853 4.57834 13.138 4.64156 13.2505 4.75408Z" fill="#2C2C2C"/>
</svg>
